<svg width="45" height="39" viewBox="0 0 45 39" fill="none" xmlns="http://www.w3.org/2000/svg">
<g clip-path="url(#clip0_18_22)">
<path d="M26.59 34.66C26.59 35.7328 26.1638 36.7617 25.4052 37.5203C24.6467 38.2788 23.6178 38.705 22.545 38.705C21.4722 38.705 20.4433 38.2788 19.6848 37.5203C18.9262 36.7617 18.5 35.7328 18.5 34.66H26.59Z" fill="#0657A3"/>
<path d="M22.55 16.71V34.66H18.55C18.55 34.66 17.61 21.4 22.55 16.71Z" fill="#0657A3"/>
<path d="M22.55 16.71V34.66H26.55C26.55 34.66 27.48 21.4 22.55 16.71Z" fill="#0657A3"/>
<path d="M18.5 33.66C18.505 34.4071 18.5685 35.1527 18.69 35.89C18.84 36.29 26.54 35.3 26.54 35.3C26.631 34.6163 26.631 33.9236 26.54 33.24C26.37 32.53 18.5 33.66 18.5 33.66Z" fill="#0657A3"/>
<path d="M12.64 33.66C15.1418 33.66 17.17 31.6318 17.17 29.13C17.17 26.6281 15.1418 24.6 12.64 24.6C10.1381 24.6 8.10999 26.6281 8.10999 29.13C8.10999 31.6318 10.1381 33.66 12.64 33.66Z" fill="#0657A3"/>
<path d="M10.69 33.23C7.63676 31.6913 5.09647 29.2986 3.37814 26.3427C1.65982 23.3869 0.837513 19.9954 1.01126 16.5808C1.18501 13.1662 2.34733 9.87565 4.35681 7.1095C6.3663 4.34334 9.13635 2.22077 12.33 0.999986L12.54 0.919986C12.54 0.919986 18.43 -1.28001 21.54 2.78999L21.64 2.88999C20.9265 2.42553 20.1253 2.11226 19.286 1.96951C18.4466 1.82675 17.587 1.85755 16.76 2.05999H16.61C14.2848 2.82714 12.2357 4.25922 10.716 6.17901C9.19642 8.0988 8.27306 10.422 8.06022 12.8612C7.84737 15.3004 8.3544 17.7484 9.51854 19.9024C10.6827 22.0563 12.4529 23.8217 14.61 24.98" fill="#0657A3"/>
<path d="M32.45 33.66C34.9518 33.66 36.98 31.6318 36.98 29.13C36.98 26.6281 34.9518 24.6 32.45 24.6C29.9481 24.6 27.92 26.6281 27.92 29.13C27.92 31.6318 29.9481 33.66 32.45 33.66Z" fill="#0657A3"/>
<path d="M34.4 33.23C37.4532 31.6913 39.9935 29.2986 41.7119 26.3427C43.4302 23.3869 44.2525 19.9954 44.0787 16.5808C43.905 13.1662 42.7427 9.87565 40.7332 7.1095C38.7237 4.34334 35.9537 2.22077 32.76 0.999986L32.55 0.919986C32.55 0.919986 26.66 -1.28001 23.55 2.78999L23.45 2.88999C24.1635 2.42553 24.9647 2.11226 25.804 1.96951C26.6434 1.82675 27.503 1.85755 28.33 2.05999H28.48C30.8052 2.82714 32.8543 4.25922 34.374 6.17901C35.8936 8.0988 36.8169 10.422 37.0298 12.8612C37.2426 15.3004 36.7356 17.7484 35.5715 19.9024C34.4073 22.0563 32.6371 23.8217 30.48 24.98" fill="#0657A3"/>
<path d="M22.55 16.71L20.55 36.7L25.77 35.98L22.55 16.71Z" fill="#0657A3"/>
</g>
<defs>
<clipPath id="clip0_18_22">
<rect width="45" height="39" fill="white"/>
</clipPath>
</defs>
</svg>
