<svg width="512" height="512" viewBox="0 0 512 512" fill="none" xmlns="http://www.w3.org/2000/svg">
<rect width="512" height="512" rx="100" fill="#475BA1"/>
<path d="M58.2961 210.884C58.2961 201.804 60.0774 193.286 63.6395 185.329C67.202 177.371 72.0217 170.434 78.0986 164.516C84.2805 158.498 91.4576 153.754 99.6302 150.285C107.803 146.816 116.551 145.082 125.877 145.082H229.29V189.001H125.877C122.733 189.001 119.8 189.562 117.075 190.684C114.351 191.807 111.941 193.388 109.846 195.428C107.855 197.367 106.283 199.662 105.131 202.315C103.978 204.967 103.402 207.824 103.402 210.884C103.402 213.945 103.978 216.853 105.131 219.607C106.283 222.259 107.855 224.606 109.846 226.646C111.941 228.584 114.351 230.115 117.075 231.237C119.8 232.359 122.733 232.92 125.877 232.92H170.982C180.308 232.92 189.056 234.655 197.229 238.123C205.506 241.49 212.683 246.183 218.76 252.202C224.942 258.119 229.762 265.107 233.219 273.167C236.782 281.124 238.563 289.643 238.563 298.723C238.563 307.802 236.782 316.321 233.219 324.278C229.762 332.235 224.942 339.224 218.76 345.244C212.683 351.161 205.506 355.853 197.229 359.322C189.056 362.792 180.308 364.525 170.982 364.525H70.8691V320.606H170.982C174.126 320.606 177.06 320.045 179.784 318.922C182.508 317.8 184.865 316.27 186.856 314.332C188.951 312.291 190.576 309.945 191.728 307.292C192.881 304.64 193.457 301.783 193.457 298.723C193.457 295.662 192.881 292.806 191.728 290.153C190.576 287.501 188.951 285.205 186.856 283.267C184.865 281.226 182.508 279.645 179.784 278.523C177.06 277.401 174.126 276.84 170.982 276.84H125.877C116.551 276.84 107.803 275.105 99.6302 271.636C91.4576 268.168 84.2805 263.475 78.0986 257.558C72.0217 251.539 67.202 244.551 63.6395 236.593C60.0774 228.534 58.2961 219.964 58.2961 210.884Z" fill="#FFD97A"/>
<path d="M63.6396 185.329L54.7878 181.572L63.6396 185.329ZM78.0987 164.516L71.2709 157.868L78.0987 164.516ZM229.29 145.082H238.947V135.68H229.29V145.082ZM229.29 189.001V198.403H238.947V189.001H229.29ZM105.131 219.607L96.1885 223.154L96.2127 223.212L96.2381 223.27L105.131 219.607ZM109.846 226.646L102.845 233.122L103.016 233.297L103.195 233.463L109.846 226.646ZM197.229 238.123L193.371 246.742L193.438 246.771L193.507 246.799L197.229 238.123ZM218.76 252.202L211.874 258.793L211.932 258.851L211.991 258.907L218.76 252.202ZM233.22 273.167L224.309 276.791L224.338 276.857L224.368 276.924L233.22 273.167ZM233.22 324.278L224.368 320.521L224.347 320.568L224.327 320.615L233.22 324.278ZM218.76 345.244L225.588 351.892L218.76 345.244ZM197.229 359.322L193.412 350.685L193.371 350.704L197.229 359.322ZM70.8692 364.525H61.213V373.927H70.8692V364.525ZM70.8692 320.606V311.204H61.213V320.606H70.8692ZM186.856 314.332L180.028 307.683L186.856 314.332ZM186.856 283.267L179.855 289.742L180.026 289.917L180.205 290.083L186.856 283.267ZM78.0987 257.558L71.2126 264.149L71.2705 264.206L71.3294 264.263L78.0987 257.558ZM63.6396 236.593L54.7701 240.31L54.7878 240.35L63.6396 236.593ZM67.9524 210.884C67.9524 203.037 69.4838 195.803 72.4914 189.085L54.7878 181.572C50.6708 190.769 48.64 200.572 48.64 210.884H67.9524ZM72.4914 189.085C75.5894 182.165 79.7361 176.219 84.9266 171.165L71.2709 157.868C64.3075 164.648 58.8148 172.577 54.7878 181.572L72.4914 189.085ZM84.9266 171.165C90.2368 165.994 96.4016 161.912 103.489 158.904L95.7717 141.666C86.514 145.595 78.3243 151.001 71.2709 157.868L84.9266 171.165ZM103.489 158.904C110.388 155.975 117.817 154.484 125.877 154.484V135.68C115.286 135.68 105.217 137.657 95.7717 141.666L103.489 158.904ZM125.877 154.484H229.29V135.68H125.877V154.484ZM219.634 145.082V189.001H238.947V145.082H219.634ZM229.29 179.599H125.877V198.403H229.29V179.599ZM125.877 179.599C121.523 179.599 117.301 180.383 113.313 182.025L120.838 199.344C122.298 198.742 123.944 198.403 125.877 198.403V179.599ZM113.313 182.025C109.441 183.621 105.991 185.885 103.018 188.78L116.674 202.076C117.892 200.891 119.261 199.993 120.838 199.344L113.313 182.025ZM103.018 188.78C100.104 191.618 97.85 194.941 96.2381 198.651L114.024 205.978C114.717 204.383 115.606 203.116 116.674 202.076L103.018 188.78ZM96.2381 198.651C94.5509 202.534 93.7459 206.645 93.7459 210.884H113.058C113.058 209.002 113.406 207.4 114.024 205.978L96.2381 198.651ZM93.7459 210.884C93.7459 215.125 94.5509 219.241 96.1885 223.154L114.073 216.06C113.406 214.464 113.058 212.764 113.058 210.884H93.7459ZM96.2381 223.27C97.8317 226.938 100.037 230.243 102.845 233.122L116.847 220.17C115.674 218.969 114.735 217.58 114.024 215.943L96.2381 223.27ZM103.195 233.463C106.152 236.198 109.546 238.344 113.313 239.896L120.838 222.578C119.157 221.885 117.731 220.972 116.497 219.83L103.195 233.463ZM113.313 239.896C117.301 241.539 121.523 242.322 125.877 242.322V223.518C123.944 223.518 122.298 223.18 120.838 222.578L113.313 239.896ZM125.877 242.322H170.982V223.518H125.877V242.322ZM170.982 242.322C179.042 242.322 186.471 243.814 193.371 246.742L201.087 229.505C191.642 225.495 181.573 223.518 170.982 223.518V242.322ZM193.507 246.799C200.64 249.7 206.73 253.698 211.874 258.793L225.647 245.611C218.636 238.667 210.373 233.28 200.951 229.448L193.507 246.799ZM211.991 258.907C217.223 263.915 221.33 269.846 224.309 276.791L242.13 269.543C238.194 260.369 232.661 252.323 225.53 245.497L211.991 258.907ZM224.368 276.924C227.375 283.642 228.907 290.875 228.907 298.723H248.219C248.219 288.411 246.188 278.607 242.071 269.41L224.368 276.924ZM228.907 298.723C228.907 306.57 227.375 313.803 224.368 320.521L242.071 328.035C246.188 318.838 248.219 309.034 248.219 298.723H228.907ZM224.327 320.615C221.346 327.474 217.222 333.445 211.933 338.594L225.588 351.892C232.663 345.003 238.178 336.999 242.113 327.942L224.327 320.615ZM211.933 338.594C206.762 343.63 200.62 347.664 193.412 350.685L201.046 367.957C210.392 364.042 218.605 358.692 225.588 351.892L211.933 338.594ZM193.371 350.704C186.471 353.631 179.042 355.123 170.982 355.123V373.927C181.573 373.927 191.642 371.949 201.087 367.941L193.371 350.704ZM170.982 355.123H70.8692V373.927H170.982V355.123ZM80.5253 364.525V320.606H61.213V364.525H80.5253ZM70.8692 330.008H170.982V311.204H70.8692V330.008ZM170.982 330.008C175.336 330.008 179.558 329.224 183.546 327.581L176.021 310.263C174.561 310.865 172.916 311.204 170.982 311.204V330.008ZM183.546 327.581C187.357 326.012 190.77 323.817 193.684 320.98L180.028 307.683C178.961 308.722 177.659 309.589 176.021 310.263L183.546 327.581ZM193.684 320.98C196.657 318.085 198.983 314.726 200.621 310.956L182.835 303.629C182.168 305.164 181.246 306.497 180.028 307.683L193.684 320.98ZM200.621 310.956C202.309 307.073 203.113 302.962 203.113 298.723H183.801C183.801 300.605 183.453 302.207 182.835 303.629L200.621 310.956ZM203.113 298.723C203.113 294.483 202.309 290.373 200.621 286.49L182.835 293.817C183.453 295.238 183.801 296.841 183.801 298.723H203.113ZM200.621 286.49C198.964 282.676 196.587 279.299 193.507 276.45L180.205 290.083C181.316 291.111 182.187 292.325 182.835 293.817L200.621 286.49ZM193.857 276.791C190.93 273.792 187.463 271.477 183.546 269.864L176.021 287.182C177.553 287.813 178.8 288.661 179.855 289.742L193.857 276.791ZM183.546 269.864C179.558 268.221 175.336 267.438 170.982 267.438V286.242C172.916 286.242 174.561 286.58 176.021 287.182L183.546 269.864ZM170.982 267.438H125.877V286.242H170.982V267.438ZM125.877 267.438C117.817 267.438 110.388 265.946 103.489 263.018L95.7717 280.255C105.217 284.264 115.286 286.242 125.877 286.242V267.438ZM103.489 263.018C96.3672 259.995 90.184 255.941 84.868 250.853L71.3294 264.263C78.3771 271.009 86.5482 276.341 95.7717 280.255L103.489 263.018ZM84.9848 250.967C79.7593 245.791 75.5958 239.77 72.4914 232.836L54.7878 240.35C58.8083 249.331 64.2843 257.287 71.2126 264.149L84.9848 250.967ZM72.5094 232.876C69.4841 226.032 67.9524 218.731 67.9524 210.884H48.64C48.64 221.197 50.6708 231.035 54.7701 240.31L72.5094 232.876Z" fill="black"/>
<path d="M451.641 254.803C451.641 264.903 450.276 274.646 447.553 284.032C444.933 293.315 441.16 302.038 436.236 310.2C431.314 318.259 425.447 325.656 418.636 332.389C411.825 339.02 404.229 344.734 395.847 349.529C387.466 354.324 378.453 358.047 368.813 360.698C359.28 363.249 349.327 364.525 338.953 364.525H271.058V145.082H338.953C349.327 145.082 359.28 146.408 368.813 149.061C378.453 151.611 387.466 155.284 395.847 160.079C404.229 164.874 411.825 170.638 418.636 177.371C425.447 184.002 431.314 191.399 436.236 199.56C441.16 207.62 444.933 216.342 447.553 225.728C450.276 235.012 451.641 244.704 451.641 254.803ZM406.533 254.803C406.533 245.724 404.754 237.205 401.19 229.248C397.734 221.29 392.912 214.353 386.732 208.436C380.655 202.417 373.477 197.673 365.199 194.204C357.026 190.735 348.278 189.001 338.953 189.001H316.479V320.606H338.953C348.278 320.606 357.026 318.922 365.199 315.556C373.477 312.087 380.655 307.394 386.732 301.477C392.912 295.458 397.734 288.47 401.19 280.512C404.754 272.453 406.533 263.883 406.533 254.803Z" fill="#FFD97A"/>
<path d="M447.553 284.032L438.26 281.475L438.251 281.508L438.241 281.541L447.553 284.032ZM436.236 310.2L444.537 315.007L444.55 314.985L444.563 314.962L436.236 310.2ZM418.636 332.389L425.463 339.036L425.489 339.011L425.514 338.986L418.636 332.389ZM368.813 360.698L371.372 369.765L371.408 369.756L371.44 369.746L368.813 360.698ZM271.058 364.525H261.402V373.927H271.058V364.525ZM271.058 145.082V135.68H261.402V145.082H271.058ZM368.813 149.061L366.161 158.101L366.222 158.118L366.284 158.134L368.813 149.061ZM395.847 160.079L400.737 151.972L395.847 160.079ZM418.636 177.371L411.754 183.968L411.78 183.994L411.806 184.019L418.636 177.371ZM436.236 199.56L427.912 204.323L427.925 204.345L427.938 204.367L436.236 199.56ZM447.553 225.728L438.235 228.194L438.251 228.252L438.27 228.311L447.553 225.728ZM401.19 229.248L392.297 232.911L392.316 232.958L392.339 233.005L401.19 229.248ZM386.732 208.436L379.844 215.027L379.902 215.084L379.963 215.141L386.732 208.436ZM365.199 194.204L361.34 202.823L361.381 202.84L365.199 194.204ZM316.479 189.001V179.599H306.823V189.001H316.479ZM316.479 320.606H306.823V330.008H316.479V320.606ZM365.199 315.556L368.961 324.215L368.99 324.203L369.016 324.192L365.199 315.556ZM386.732 301.477L379.902 294.829L386.732 301.477ZM401.19 280.512L392.32 276.795L392.31 276.822L392.297 276.849L401.19 280.512ZM441.984 254.803C441.984 264.07 440.736 272.95 438.26 281.475L456.845 286.589C459.819 276.342 461.297 265.737 461.297 254.803H441.984ZM438.241 281.541C435.843 290.043 432.399 298 427.912 305.437L444.563 314.962C449.925 306.077 454.026 296.589 456.865 286.522L438.241 281.541ZM427.938 305.392C423.416 312.797 418.024 319.593 411.754 325.791L425.514 338.986C432.866 331.718 439.21 323.722 444.537 315.007L427.938 305.392ZM411.806 325.741C405.581 331.803 398.638 337.027 390.955 341.421L400.737 357.633C409.82 352.44 418.066 346.238 425.463 339.036L411.806 325.741ZM390.955 341.421C383.304 345.799 375.058 349.212 366.187 351.65L371.44 369.746C381.849 366.882 391.624 362.848 400.737 357.633L390.955 341.421ZM366.258 351.631C357.596 353.951 348.503 355.123 338.953 355.123V373.927C350.148 373.927 360.963 372.548 371.372 369.765L366.258 351.631ZM338.953 355.123H271.058V373.927H338.953V355.123ZM280.714 364.525V145.082H261.402V364.525H280.714ZM271.058 154.484H338.953V135.68H271.058V154.484ZM338.953 154.484C348.471 154.484 357.529 155.7 366.161 158.101L371.466 140.02C361.031 137.117 350.18 135.68 338.953 135.68V154.484ZM366.284 158.134C375.119 160.471 383.333 163.825 390.955 168.185L400.737 151.972C391.595 146.743 381.791 142.751 371.347 139.988L366.284 158.134ZM390.955 168.185C398.609 172.565 405.539 177.822 411.754 183.968L425.514 170.774C418.111 163.454 409.846 157.183 400.737 151.972L390.955 168.185ZM411.806 184.019C418.034 190.081 423.4 196.843 427.912 204.323L444.563 194.797C439.226 185.955 432.859 177.924 425.463 170.723L411.806 184.019ZM427.938 204.367C432.399 211.668 435.837 219.599 438.235 228.194L456.871 223.262C454.032 213.085 449.925 203.571 444.537 194.753L427.938 204.367ZM438.27 228.311C440.736 236.717 441.984 245.537 441.984 254.803H461.297C461.297 243.87 459.819 233.307 456.839 223.145L438.27 228.311ZM416.19 254.803C416.19 244.491 414.159 234.688 410.042 225.491L392.339 233.005C395.345 239.723 396.877 246.956 396.877 254.803H416.19ZM410.084 225.584C406.141 216.514 400.611 208.537 393.501 201.731L379.963 215.141C385.216 220.169 389.323 226.066 392.297 232.911L410.084 225.584ZM393.617 201.845C386.629 194.922 378.396 189.499 369.016 185.568L361.381 202.84C368.556 205.847 374.681 209.911 379.844 215.027L393.617 201.845ZM369.058 185.585C359.611 181.576 349.543 179.599 338.953 179.599V198.403C347.013 198.403 354.442 199.895 361.34 202.823L369.058 185.585ZM338.953 179.599H316.479V198.403H338.953V179.599ZM306.823 189.001V320.606H326.135V189.001H306.823ZM316.479 330.008H338.953V311.204H316.479V330.008ZM338.953 330.008C349.504 330.008 359.54 328.097 368.961 324.215L361.436 306.897C354.516 309.748 347.052 311.204 338.953 311.204V330.008ZM369.016 324.192C378.363 320.276 386.574 314.925 393.559 308.125L379.902 294.829C374.733 299.863 368.591 303.899 361.381 306.92L369.016 324.192ZM393.559 308.125C400.634 301.237 406.147 293.231 410.084 284.176L392.297 276.849C389.317 283.708 385.193 289.679 379.902 294.829L393.559 308.125ZM410.058 284.229C414.159 274.954 416.19 265.116 416.19 254.803H396.877C396.877 262.651 395.345 269.951 392.32 276.795L410.058 284.229Z" fill="black"/>
</svg>
